<?xml version="1.0" encoding="UTF-8" standalone="no"?><!DOCTYPE svg PUBLIC "-//W3C//DTD SVG 1.1//EN" "http://www.w3.org/Graphics/SVG/1.1/DTD/svg11.dtd"><svg width="100%" height="100%" viewBox="0 0 236 72" version="1.1" xmlns="http://www.w3.org/2000/svg" xmlns:xlink="http://www.w3.org/1999/xlink" xml:space="preserve" xmlns:serif="http://www.serif.com/" style="fill-rule:evenodd;clip-rule:evenodd;stroke-linejoin:round;stroke-miterlimit:2;"><g><rect x="67.357" y="0.128" width="15.111" height="13.573" style="fill:#d65d24;"/><rect x="67.357" y="17.176" width="15.111" height="45.282" style="fill:#203546;"/><path d="M33.51,37.052l0,25.266l14.442,-0l0,-23.76c0,-4.62 3.745,-8.364 8.364,-8.364l4.497,-0l0,-13.017l-7.428,-0c-10.977,-0 -19.875,8.898 -19.875,19.875" style="fill:#203546;fill-rule:nonzero;"/><path d="M14.204,1.876l-14.176,9.881l-0,30.263c-0,11.334 9.188,20.523 20.522,20.523l5.831,0l-0,-13.541l-3.684,0c-4.254,0 -8.493,-3.448 -8.493,-7.702l-0,-12.847l12.118,0l0.059,-7.121l-0,-5.395l-12.177,0l-0,-14.061Z" style="fill:#203546;fill-rule:nonzero;"/><path d="M112.701,49.075c-5.102,0 -9.237,-4.135 -9.237,-9.237c0,-5.102 4.135,-9.238 9.237,-9.238c5.102,0 9.238,4.136 9.238,9.238c0,5.102 -4.136,9.237 -9.238,9.237m0,-32.499c-12.847,0 -23.261,10.415 -23.261,23.262l0,32.033l14.024,0l0,-10.689c2.833,1.228 5.953,1.917 9.237,1.917c12.847,0 23.261,-10.415 23.261,-23.261c0,-12.847 -10.414,-23.262 -23.261,-23.262" style="fill:#203546;fill-rule:nonzero;"/><path d="M212.379,49.075c-5.102,0 -9.237,-4.135 -9.237,-9.237c-0,-5.102 4.135,-9.238 9.237,-9.238c5.102,0 9.238,4.136 9.238,9.238c-0,5.102 -4.136,9.237 -9.238,9.237m23.215,-10.729c-0.718,-11.515 -10.04,-20.909 -21.55,-21.711c-6.866,-0.479 -13.147,2.029 -17.688,6.35c-0.519,0.493 -1.03,0.994 -1.567,1.467l-9.282,8.175l-0.001,-0.006l-15.784,13.924c-0.173,0.164 -0.35,0.322 -0.535,0.472l-0.025,0.022l-0.002,-0.001c-0.405,0.325 -0.832,0.623 -1.289,0.877c-0,0 -0.001,0.001 -0.002,0.001c-1.333,0.741 -2.867,1.164 -4.501,1.159c-4.92,-0.013 -9.086,-4.083 -9.209,-9.001c-0.13,-5.21 4.054,-9.474 9.235,-9.474c3.646,0 6.789,2.118 8.292,5.186l10.56,-9.566c-4.726,-6.532 -12.756,-10.515 -21.642,-9.48c-10.624,1.236 -19.151,9.818 -20.325,20.449c-1.549,14.033 9.395,25.91 23.115,25.91c6.242,0 11.906,-2.464 16.084,-6.466l10.811,-9.51c3.058,9.277 11.789,15.976 22.09,15.976c13.34,0 24.058,-11.23 23.215,-24.753" style="fill:#203546;fill-rule:nonzero;"/></g></svg>