<?xml version="1.0" encoding="UTF-8"?>
<svg id="Layer_1" data-name="Layer 1" xmlns="http://www.w3.org/2000/svg" viewBox="0 0 595.28 226.77">
  <defs>
    <style>
      .cls-1 {
        fill: #e3cbda;
      }

      .cls-2 {
        fill: #ac1480;
      }

      .cls-3 {
        fill: #fff;
        fill-rule: evenodd;
      }
    </style>
  </defs>
  <path class="cls-1" d="m355.08,217.62l-349.32.14,24.52-112.73C53.84,5.44,70.48,9.1,161.99,9.11h167.7s259.83-.14,259.83-.14l-29.76,117.52c-23.55,99.59-34.96,91.15-126.47,91.14h-78.21Z"/>
  <polygon class="cls-3" points="158.61 39.75 129.57 39.75 89.97 60.51 85.75 91.46 112.65 89.54 94.03 188.37 126.89 187.99 158.61 39.75"/>
  <path d="m160.99,37.6l.63-.36-33.24,153.59H42.42s22.44-106.29,22.44-106.29c5.46-26.4,13.85-46.5,45.3-47.25,7.91-.19,45.56-.19,51.21-.19l-.39.49Zm-36.14,147.52l30.97-143.52h-24.47c-9.2,12.51-21.07,19.86-35.6,22.03l-4.72,23.02,14.09-.61h12.4s-4.71,22.27-4.71,22.27l-15.63,76.62,27.68.18Z"/>
  <path class="cls-2" d="m132.24,190.23l-.61.35,33.24-153.59h85.95s-22.44,106.29-22.44,106.29c-5.44,26.4-13.84,46.49-45.28,47.24-7.92.19-45.56.19-51.22.19l.37-.48Z"/>
  <g>
    <path d="m323.31,37.57l-4.42,21.21h-17.62s-3.83,15.39-3.83,15.39h18.44s-3.64,17.1-3.64,17.1h-18.78s-13.68,64.84-13.68,64.84h-20.87s13.7-64.84,13.7-64.84h-16.18c-9.13-.3-8.72-16.37,3.64-17.18h16.18c4.2-20.37,10.67-35.88,34.95-36.45,6.1-.15,12.1-.06,12.1-.06m113.55,53.71l3.82-17.18h15.08s1.65-7.92,1.65-7.92c9.28-1.76,17.12-6.37,23.48-13.83l.28-.09-4.57,21.84h18.68c10.36.82,9.52,16.51-3.84,17.18h-18.67s-7.62,34.97-7.62,34.97c-.48,1.88-.93,4.67-.93,7.79,0,4.25,2.42,6.25,6.21,6.66h2.88s18.65,0,18.65,0c10.37.82,9.54,16.5-3.83,17.17,0,0-19.77.1-20.64.1-14.15,0-24.1-5.61-24.1-20.99,0-6.21,1.23-12.29,2.64-18.66l5.91-27.05h-15.08Zm.61-17.18c-8.79,0-13.87.08-21.48.08-16.49,0-34.69,6.68-34.69,25.48,0,20.07,27.07,21.31,27.07,34.21,0,6.53-7.31,8.86-14.3,8.86-8.09,0-14-2.95-19.93-6.21-7.48-3.55-12.27,12.05-4.5,16.62,7.62,3.58,16.02,4.82,24.43,4.82,17.87,0,36.07-6.22,36.07-27.05,0-19.6-27.06-23.32-27.06-33.44,0-6.37,7.96-6.48,14.17-6.48h16.31s3.92-16.92,3.92-16.92Zm-109.49,82.01l14.33-69.35c.61-3.42,1.85-8.58,2.45-12.32h19.92s-3.41,16.68-3.41,16.68h.32c3.73-8.71,14.01-16.94,23.65-16.94,2.64,0,5.43.15,7.92.77l-.39,1.83c-7.44,3.25-13.22,8.82-14.67,17.45-12.92,1.55-19.33,13.89-21.81,25.96l-7.47,35.92h-20.84Z"/>
    <g>
      <path d="m303.19,156.1s15.89-77.93,16.52-81.67h19.82s-15.48,81.67-15.48,81.67h-20.86Z"/>
      <path d="m323.04,58.78s3.66-17.71,4.28-21.44h19.91s-4.11,21.44-4.11,21.44h-20.08Z"/>
    </g>
  </g>
  <g>
    <path d="m263.96,185.96c-.32.53-.76,1.06-1.32,1.57-.56.52-1.24.96-2.04,1.34-.8.37-1.73.56-2.76.56-.4,0-.81-.02-1.22-.08-.41-.05-.81-.14-1.2-.27-.39-.12-.75-.3-1.09-.52s-.64-.5-.89-.84c-.51-.7-.83-1.56-.95-2.57-.12-1.02-.07-2.07.16-3.16.24-1.13.62-2.15,1.14-3.07.53-.92,1.15-1.7,1.88-2.35.73-.64,1.54-1.14,2.43-1.5.89-.36,1.83-.53,2.81-.53.7,0,1.31.09,1.83.26.52.18.96.39,1.33.66.36.26.66.56.89.89.23.33.39.64.51.95.12.3.19.57.23.82.03.25.04.43.01.55-.04.19-.14.38-.31.57s-.39.28-.66.28c-.15,0-.27-.03-.37-.11-.1-.07-.18-.16-.26-.28-.08-.11-.14-.24-.19-.38-.05-.14-.09-.28-.14-.41-.11-.35-.27-.67-.48-.96-.2-.29-.45-.52-.71-.71-.18-.13-.43-.26-.74-.38-.3-.12-.7-.18-1.2-.18-.51,0-1.07.09-1.67.27s-1.19.5-1.76.94c-.57.45-1.1,1.07-1.58,1.83-.48.77-.84,1.75-1.09,2.93-.25,1.18-.3,2.14-.16,2.9.15.75.41,1.34.78,1.78.37.44.81.73,1.33.89.51.16,1,.25,1.48.25,1.04,0,1.98-.28,2.79-.83.82-.55,1.5-1.33,2.07-2.34.11-.18.24-.37.39-.55.15-.18.37-.27.65-.27.18,0,.36.06.51.2.15.14.2.34.14.6-.07.31-.26.73-.58,1.26Z"/>
    <path d="m272.74,185.03l-1.93,3.22c-.23.39-.43.68-.6.89-.17.2-.42.3-.76.3-.27,0-.47-.09-.61-.27-.14-.18-.18-.37-.14-.57.03-.14.09-.29.16-.44.08-.15.19-.34.33-.57l6.98-11.33c.17-.28.32-.53.46-.75.14-.22.28-.39.43-.53.14-.14.3-.25.47-.32.16-.07.36-.11.59-.11.19,0,.36.03.52.11.16.08.28.17.36.29.09.11.16.3.22.55.05.27.11.51.16.74l2.33,11.27c.05.26.09.45.1.61.02.15,0,.3-.02.44-.04.19-.17.39-.39.59-.22.2-.48.3-.77.3-.34,0-.55-.1-.63-.31-.08-.2-.16-.51-.24-.91l-.61-3.18h-6.42Zm6.17-1.55l-1.26-6.74-4.03,6.74h5.29Z"/>
    <path d="m289.51,187.83c-.06.3-.11.5-.15.64-.04.13-.09.24-.14.35-.11.21-.27.37-.47.47-.2.1-.39.15-.57.15-.19,0-.35-.05-.5-.17-.14-.11-.23-.26-.26-.45,0-.1,0-.24.05-.43.03-.2.07-.38.1-.55l2.43-11.43c.08-.36.16-.65.24-.86.08-.22.18-.38.31-.48.13-.11.3-.18.52-.21.23-.04.52-.05.88-.05h4.59c.05,0,.19,0,.4.01.21,0,.45.02.72.06.27.03.54.09.82.17.28.08.53.2.74.34.5.35.86.81,1.07,1.39.2.58.23,1.23.07,1.95-.15.73-.43,1.33-.82,1.81-.39.48-.75.83-1.09,1.04-.56.36-1.08.61-1.56.73-.48.12-.87.21-1.17.26.16.11.36.26.6.45.24.2.45.47.65.82.11.19.23.41.35.66.13.25.21.41.25.5l.84,2.19c.09.25.17.46.22.61.05.16.1.28.12.38.03.11.04.18.04.25,0,.06,0,.13-.02.21-.06.27-.19.48-.41.62-.21.15-.43.22-.66.22-.15,0-.27-.02-.37-.06-.1-.04-.19-.11-.27-.21-.08-.1-.16-.23-.23-.4-.07-.17-.16-.38-.27-.64l-.9-2.17c-.33-.78-.62-1.39-.88-1.82-.26-.43-.52-.76-.77-.97-.26-.2-.52-.33-.8-.38-.28-.05-.59-.07-.94-.07h-1.68s-1.09,5.09-1.09,5.09Zm2.46-11.55l-1.04,4.91h3.36c.23,0,.55-.02.95-.04.41-.03.82-.12,1.25-.27.43-.16.83-.4,1.19-.73.37-.34.61-.82.75-1.45.17-.78,0-1.4-.53-1.87-.13-.13-.3-.24-.51-.31-.22-.07-.44-.12-.67-.16-.23-.03-.47-.05-.71-.06-.24,0-.45,0-.62,0h-3.43Z"/>
    <path d="m324.34,186.45c.09.13.19.25.29.36.11.11.22.24.34.38.12.14.29.32.5.53.15.18.25.32.32.42.05.11.07.24.03.4-.07.3-.21.52-.43.67-.23.15-.43.22-.6.22-.05,0-.11,0-.17,0-.06,0-.13-.04-.22-.09-.09-.05-.2-.14-.34-.26-.14-.12-.3-.29-.5-.5-.28-.31-.5-.55-.64-.73-.14-.18-.25-.32-.34-.43-.23.23-.5.47-.8.71-.3.24-.64.46-1.02.65-.38.2-.8.36-1.26.48-.47.13-.98.19-1.54.19-.83,0-1.52-.13-2.06-.4-.54-.27-.96-.61-1.27-1.02-.3-.41-.49-.86-.57-1.36-.08-.5-.08-.97.02-1.43.12-.58.34-1.08.65-1.52.31-.44.66-.82,1.05-1.15.4-.33.83-.62,1.28-.88.45-.25.88-.48,1.3-.68-.34-.6-.59-1.16-.76-1.68-.17-.52-.2-1.02-.09-1.52.08-.37.23-.75.45-1.14.23-.39.52-.73.88-1.05.36-.32.79-.57,1.28-.77.49-.2,1.04-.3,1.64-.3.64,0,1.17.11,1.56.33.4.22.7.49.91.81.2.32.33.67.37,1.04.04.37.03.7-.03.99-.16.77-.59,1.43-1.27,2-.68.57-1.52,1.09-2.5,1.56.35.58.63,1.04.84,1.39.21.35.4.64.55.87.15.23.29.43.4.6.12.17.25.37.41.58.06-.08.15-.22.28-.41.13-.19.26-.4.41-.62.15-.22.29-.43.41-.63.13-.19.22-.33.28-.41.26-.35.53-.52.82-.52.23,0,.41.08.53.23.13.16.17.35.12.58-.04.17-.14.4-.3.68-.16.29-.34.57-.55.88-.2.3-.41.59-.6.86-.2.27-.35.47-.46.6.16.2.28.36.38.5Zm-6.32-3.79c-.34.19-.64.4-.92.64-.28.24-.52.49-.72.77-.2.28-.34.6-.42.96-.07.36-.08.72-.02,1.08.07.35.2.66.4.95.2.29.46.52.78.69.32.18.69.26,1.12.26s.8-.07,1.16-.21c.36-.14.68-.31.97-.5.28-.19.54-.39.76-.6.22-.21.39-.38.51-.5-.18-.26-.41-.57-.66-.93-.25-.36-.5-.74-.75-1.12-.25-.39-.48-.76-.69-1.13-.22-.36-.39-.67-.51-.91-.34.18-.69.36-1.02.54Zm3.08-3c.31-.17.59-.36.84-.56.25-.2.46-.42.63-.66.17-.23.29-.49.34-.77.1-.47.02-.88-.23-1.23-.25-.35-.65-.52-1.19-.52-.27,0-.52.05-.78.15-.25.1-.47.23-.66.39-.19.16-.36.34-.49.55-.13.21-.22.42-.26.64-.06.27-.06.53,0,.79.06.27.13.47.2.62.02.02.07.09.12.2.06.11.12.23.19.35.07.12.13.25.19.35.06.11.09.18.11.23.34-.18.68-.35.99-.52Z"/>
    <path d="m352.17,175.74c.22-.39.41-.68.58-.89.17-.2.41-.3.73-.3.25,0,.45.09.59.26.14.18.18.36.14.57-.03.15-.07.28-.13.39-.06.11-.17.3-.34.57l-6.65,11.41c-.16.26-.32.51-.45.72-.13.21-.27.39-.41.53s-.3.25-.46.32c-.17.07-.37.11-.6.11s-.41-.03-.55-.1c-.14-.07-.25-.17-.34-.31-.08-.14-.15-.32-.19-.53s-.09-.46-.14-.74l-1.72-11.31c-.05-.27-.08-.47-.09-.6-.02-.14,0-.27.02-.4.05-.2.18-.4.39-.59.22-.2.46-.29.75-.29.35,0,.57.11.64.33.09.22.16.52.22.91l1.51,11.35,6.47-11.41Z"/>
    <path d="m358.41,185.04l-1.93,3.22c-.23.39-.43.68-.6.89-.17.2-.42.3-.76.3-.27,0-.47-.09-.61-.27-.14-.18-.18-.37-.14-.57.03-.14.09-.29.16-.44.08-.15.19-.34.33-.57l6.98-11.33c.17-.28.32-.53.46-.75.14-.22.28-.39.43-.53.14-.14.3-.25.47-.32.16-.07.36-.11.59-.11.19,0,.36.03.52.11.16.08.28.17.36.29.09.11.16.3.22.55.05.27.11.51.16.74l2.33,11.27c.05.26.09.45.1.61.02.15,0,.3-.02.44-.04.19-.17.39-.39.59-.22.2-.48.3-.77.3-.34,0-.55-.1-.63-.31-.08-.2-.16-.51-.24-.91l-.61-3.18h-6.42Zm6.17-1.55l-1.26-6.74-4.03,6.74h5.29Z"/>
    <path d="m385.2,176.1c.05-.31.1-.53.14-.67.04-.14.11-.28.2-.41.08-.1.2-.21.36-.31.17-.11.34-.15.53-.15.27,0,.48.09.63.28.1.12.15.28.13.47-.02.2-.07.46-.14.79l-2.42,11.39c-.11.5-.2.86-.28,1.08-.08.22-.24.42-.48.59-.27.19-.55.28-.84.28-.16,0-.29-.02-.39-.06-.1-.04-.18-.11-.27-.2-.08-.09-.16-.22-.24-.36-.07-.15-.16-.33-.27-.55l-4.79-10.49-2.07,10.1c-.07.32-.12.55-.16.68-.04.14-.1.27-.2.41-.08.11-.2.21-.37.31-.17.1-.35.15-.53.15-.27,0-.48-.09-.63-.28-.11-.12-.15-.28-.13-.48.02-.19.07-.46.14-.79l2.44-11.47c.05-.24.1-.44.14-.61.05-.17.09-.31.13-.43.05-.11.1-.21.18-.3.07-.09.16-.17.27-.25.05-.04.14-.09.28-.17.14-.07.32-.11.55-.11.3,0,.5.08.63.25.13.16.28.46.46.87l4.88,10.67,2.12-10.24Z"/>
    <path d="m402.57,187.84c-.06.3-.11.5-.15.64-.04.13-.09.24-.14.35-.11.21-.27.37-.47.47-.2.1-.39.15-.57.15-.19,0-.35-.05-.5-.17-.14-.11-.23-.26-.26-.45,0-.1,0-.24.05-.43.03-.2.07-.38.1-.55l2.43-11.43c.08-.36.16-.65.24-.86.08-.22.18-.38.31-.48.13-.11.3-.18.52-.21.23-.04.52-.05.88-.05h4.59c.05,0,.19,0,.4.01.21,0,.45.02.72.06.27.03.54.09.82.17.28.08.53.2.74.34.5.35.86.81,1.07,1.39.2.58.23,1.23.07,1.95-.15.73-.43,1.33-.82,1.81-.39.48-.75.83-1.09,1.04-.56.36-1.08.61-1.56.73-.48.12-.87.21-1.17.26.16.11.36.26.6.45.24.2.45.47.65.82.11.19.23.41.35.66.13.25.21.41.25.5l.84,2.19c.09.25.17.46.22.61.05.16.1.28.12.38.03.11.04.18.04.25,0,.06,0,.13-.02.21-.06.27-.19.48-.41.62-.21.15-.43.22-.66.22-.15,0-.27-.02-.37-.06-.1-.04-.19-.11-.27-.21-.08-.1-.16-.23-.23-.4-.07-.17-.16-.38-.27-.64l-.9-2.17c-.33-.78-.62-1.39-.88-1.82-.26-.43-.52-.76-.77-.97-.26-.2-.52-.33-.8-.38-.28-.05-.59-.07-.94-.07h-1.68s-1.09,5.09-1.09,5.09Zm2.46-11.55l-1.04,4.91h3.36c.23,0,.55-.02.95-.04.41-.03.82-.12,1.25-.27.43-.16.83-.4,1.19-.73.37-.34.61-.82.75-1.45.17-.78,0-1.4-.53-1.87-.13-.13-.3-.24-.51-.31-.22-.07-.44-.12-.67-.16-.23-.03-.47-.05-.71-.06s-.45,0-.62,0h-3.43Z"/>
    <path d="m421.41,180.97h6.16c.15,0,.29,0,.45.01.15,0,.28.03.4.08.11.05.19.12.25.23.06.11.07.25.03.44-.05.2-.12.35-.22.45-.1.1-.22.18-.35.23-.14.05-.27.08-.43.09-.16,0-.3,0-.45,0h-6.16s-1.09,5.13-1.09,5.13h6.98c.15,0,.3,0,.45.01.16,0,.3.03.42.08.13.05.22.12.28.22.05.1.06.25.02.45s-.11.36-.22.46-.23.18-.36.23c-.14.05-.29.08-.45.08-.16,0-.32.01-.47.01h-7.31c-.21,0-.39,0-.54,0-.14,0-.24-.01-.32-.03-.09-.02-.16-.05-.21-.09-.06-.04-.12-.09-.19-.16-.12-.14-.17-.29-.15-.46.02-.17.07-.46.15-.87l2.38-11.19c.07-.35.14-.61.19-.8.05-.19.17-.36.35-.5.17-.15.34-.23.51-.26.17-.03.47-.04.9-.04h7.02c.15,0,.3,0,.45.01.15,0,.29.03.41.08.13.05.22.12.28.22.05.1.06.25.02.45s-.11.36-.22.46c-.1.11-.22.18-.36.23-.14.05-.29.08-.45.08-.16,0-.32.01-.47.01h-6.7s-.98,4.63-.98,4.63Z"/>
    <path d="m446.26,176.1c.05-.31.1-.53.14-.67.04-.14.11-.28.2-.41.08-.1.2-.21.36-.31.17-.11.34-.15.53-.15.27,0,.48.09.63.28.1.12.15.28.13.47-.02.2-.07.46-.14.79l-2.42,11.39c-.11.5-.2.86-.28,1.08-.08.22-.24.42-.48.59-.27.19-.55.28-.84.28-.16,0-.29-.02-.39-.06-.1-.04-.18-.11-.27-.2-.08-.09-.16-.22-.24-.36-.07-.15-.16-.33-.27-.55l-4.79-10.49-2.07,10.1c-.07.32-.12.55-.16.68-.04.14-.1.27-.2.41-.08.11-.2.21-.37.31-.17.1-.35.15-.53.15-.27,0-.48-.09-.63-.28-.11-.12-.15-.28-.13-.48.02-.19.07-.46.14-.79l2.44-11.47c.05-.24.1-.44.14-.61.05-.17.09-.31.13-.43.05-.11.1-.21.18-.3.07-.09.16-.17.27-.25.05-.04.14-.09.28-.17.14-.07.32-.11.55-.11.3,0,.5.08.63.25.13.16.28.46.46.87l4.88,10.67,2.12-10.24Z"/>
    <path d="m457.58,187.86c-.07.32-.14.59-.2.8s-.18.39-.34.5c-.08.07-.19.13-.33.19-.13.06-.28.09-.44.09-.27,0-.48-.09-.63-.28-.12-.12-.17-.29-.14-.49.02-.21.07-.48.14-.82l2.45-11.51h-3.26c-.3,0-.53-.01-.7-.03-.17-.02-.3-.09-.38-.19-.06-.07-.1-.14-.13-.24-.04-.09-.04-.19-.02-.3.02-.09.07-.19.13-.29.07-.1.14-.18.23-.25.14-.12.29-.19.48-.21.19-.02.43-.03.73-.03h8.47c.3,0,.53.01.7.03.17.02.3.09.38.21.06.07.1.15.14.25.03.09.04.19.01.3-.02.09-.07.19-.14.29-.08.1-.16.18-.24.25-.13.11-.28.17-.46.19-.18.02-.42.03-.71.03h-3.28s-2.45,11.51-2.45,11.51Z"/>
    <path d="m468.54,185.04l-1.93,3.22c-.23.39-.43.68-.6.89-.17.2-.42.3-.76.3-.27,0-.47-.09-.61-.27-.14-.18-.18-.37-.14-.57.03-.14.09-.29.16-.44.08-.15.19-.34.33-.57l6.98-11.33c.17-.28.32-.53.46-.75.14-.22.28-.39.43-.53.14-.14.3-.25.47-.32.16-.07.36-.11.59-.11.19,0,.36.03.52.11.16.08.28.17.36.29.09.11.16.3.22.55.05.27.11.51.16.74l2.33,11.27c.05.26.09.45.1.61.02.15,0,.3-.02.44-.04.19-.17.39-.39.59-.22.2-.48.3-.77.3-.34,0-.55-.1-.63-.31-.08-.2-.16-.51-.24-.91l-.61-3.18h-6.42Zm6.17-1.55l-1.26-6.74-4.03,6.74h5.29Z"/>
    <path d="m491.41,187.66c.15,0,.3,0,.46.01.16,0,.3.03.42.08.12.05.21.12.27.23.06.11.08.26.03.46-.04.2-.11.36-.22.46-.11.11-.23.18-.37.22-.15.04-.3.07-.45.07-.15,0-.32.01-.48.01h-6.42c-.36,0-.64-.02-.85-.05-.2-.03-.35-.1-.44-.21-.08-.11-.12-.27-.11-.48.01-.21.06-.5.14-.87l2.43-11.45c.07-.35.14-.62.2-.82.06-.19.16-.35.31-.47.08-.07.19-.13.32-.2.14-.07.28-.1.44-.1.3,0,.52.1.66.3.11.12.15.28.13.48-.02.2-.07.47-.14.8l-2.45,11.51h6.1Z"/>
  </g>
</svg>