
<svg version="1.1" id="Layer_1" xmlns="http://www.w3.org/2000/svg" xmlns:xlink="http://www.w3.org/1999/xlink" x="0px" y="0px"
	 viewBox="0 0 185 40" style="enable-background:new 0 0 185 40;" xml:space="preserve">
	<g>
		<path fill="#5A5B5D" d="M49.5,11.2v20h-4.3V9.1h2.2C48.5,9.1,49.5,10,49.5,11.2z"/>
		<path fill="#5A5B5D" d="M59.5,31.5c-5.2-0.2-7.8-3.2-7.8-9c0-5.8,2.6-8.8,7.9-8.8c5.5,0,8,3.3,7.7,10.1H56.2c0.2,2.6,1.3,4,3.4,4
			c1,0,1.9-0.4,2.8-1.2c0.4-0.4,0.9-0.6,1.5-0.6H67C66.1,29.5,63.8,31.5,59.5,31.5z M56.3,20.7h6.5c-0.3-2.3-1.3-3.4-3.2-3.4
			S56.6,18.4,56.3,20.7z"/>
		<path fill="#5A5B5D" d="M73.6,11.2v9.5l5.3-6.1h5.2l-5.9,6.4l6,10.2H79l-3-5.6c-0.6-1-1.1-1.5-1.7-1.5c-0.5,0.1-0.7,0.4-0.7,0.8v6.3
			h-4.3V9.1h2.2C72.7,9.1,73.6,10,73.6,11.2z"/>
		<path fill="#5A5B5D" d="M89.5,11.2v9.5l5.3-6.1h5.2L94,20.9l6,10.2h-5.2l-3-5.6c-0.6-1-1.1-1.5-1.7-1.5c-0.5,0.1-0.7,0.4-0.7,0.8v6.3
			h-4.3V9.1h2.2C88.5,9.1,89.5,10,89.5,11.2z"/>
		<path fill="#5A5B5D" d="M107.4,31.5c-5.2-0.2-7.8-3.2-7.8-9c0-5.8,2.6-8.8,7.9-8.8c5.4,0,8,3.3,7.7,10.1H104c0.2,2.6,1.3,4,3.4,4
			c1,0,1.9-0.4,2.8-1.2c0.4-0.4,0.9-0.6,1.5-0.6h3.2C113.9,29.5,111.6,31.5,107.4,31.5z M104.1,20.7h6.5c-0.3-2.3-1.3-3.4-3.2-3.4
			C105.5,17.2,104.4,18.4,104.1,20.7z"/>
		<path fill="#EE782E" d="M131.9,14l-6.1,17.2h-4.6l-6-17.2h4.8l3.5,12l3-10.5c0.3-1,1-1.5,2.1-1.5H131.9z"/>
		<path fill="#EE782E" d="M137.8,11.2v20h-4.3V9.1h2.2C136.9,9.1,137.8,10,137.8,11.2z"/>
		<path fill="#EE782E" d="M143.2,9.1c1.4,0,2.1,0.7,2.1,2.1v1.3h-4.3V9.1H143.2z M143.2,14c1.4,0,2.1,0.7,2.1,2.1v15.1h-4.3V14H143.2z"
			/>
		<path fill="#EE782E" d="M155.3,31.5c-5.2-0.2-7.8-3.2-7.8-9c0-5.8,2.6-8.8,7.9-8.8c5.4,0,8,3.3,7.7,10.1H152c0.2,2.6,1.3,4,3.4,4
			c1,0,1.9-0.4,2.8-1.2c0.4-0.4,0.9-0.6,1.5-0.6h3.2C161.9,29.5,159.5,31.5,155.3,31.5z M152,20.7h6.5c-0.3-2.3-1.3-3.4-3.2-3.4
			C153.5,17.2,152.4,18.4,152,20.7z"/>
		<path fill="#EE782E" d="M164.8,22.6c0-5.7,2.7-8.6,8-8.7c5.4,0,8,2.5,8,7.7v10.2c0,4.3-2.7,6.5-8.2,6.6c-3.9,0-6.4-1.8-7.4-5.4h4.8
			c0.3,1.2,1.3,1.8,3.1,1.8c2.3,0,3.4-1.3,3.4-4c0,0,0,0,0-1.8c-1.1,1.7-2.8,2.5-4.9,2.5C167.1,31.5,164.8,28.5,164.8,22.6z
			 M176.6,22.7c0-3.5-1.2-5.2-3.6-5.2c-2.5,0-3.7,1.7-3.7,5.2c0.1,3.3,1.3,5,3.6,5S176.4,26,176.6,22.7z"/>
	</g>
	<path fill="#EE782E" d="M18.5,15.8c0.2,1.7,0.2,3.4,0.2,5.2c0,0.6,0,1.1,0.5,1.5c0.5,0.3,1.2,0.3,1.6,0c0.6-0.4,0.7-1.4,0.8-2
		c0.2-1,0.5-1.9,0.7-2.9c0.2-0.8,0.4-1.7,0.6-2.5c0.3-0.7,0.8-0.9,1.4-1.2c1.3-0.5,3.1-0.9,3.7-2.4c0.6-1.6-1.6-1.9-2.7-1.7
		c-1.5,0.2-2.9,1.4-4.3,0.3c-1.4-1.1-2.8-2.4-4.2-3.5c-0.6-0.5-1.3-0.9-2.1-0.5c-0.6,0.3-1,0.8-0.8,1.5c0.2,0.8,1,1.6,1.5,2.3
		c0.6,0.8,1.2,1.7,1.7,2.5c-3.9,0.5-7.9,0.1-10.6-3C5.5,7.7,4.5,5.8,3.6,4.1C3,2.9,3.3,1.3,4.5,0.7c0.7-0.4,1.6-0.1,2.4,0
		c1.2,0.1,2.4,0.3,3.6,0.4c2.1,0.2,4.2,0.5,6.3,0.7c4.4,0.5,8.7,1,13.1,1.6c2.1,0.3,4.2,0.5,6.3,0.8c1.7,0.2,3.6,0.1,4.4,1.9
		c0.3,0.7,0.5,1.6,0.3,2.4c-0.3,1-1.3,1.8-2,2.6c-1.5,1.6-2.9,3.3-4.4,4.9c-3.1,3.5-6.2,6.9-9.3,10.4c-0.7,0.8-1.4,1.6-2.1,2.4
		c-0.7,0.8-1.4,1.7-2.2,2.4c-1.9,1.5-3-1.1-3.8-2.5c-0.9-1.5-1.7-4-3.9-3.2c-0.7,0.3-1.8,1.4-2.7,1.2c-0.8-0.1-0.6-1.5-0.5-2.1
		c0.3-2,1.2-4,2.7-5.4c0.8-0.8,1.9-1.4,2.9-2C16.5,16.7,17.5,16.1,18.5,15.8z"/>
</svg>
