<?xml version="1.0" encoding="UTF-8" standalone="no"?>
<!DOCTYPE svg PUBLIC "-//W3C//DTD SVG 1.1//EN" "http://www.w3.org/Graphics/SVG/1.1/DTD/svg11.dtd">
<svg width="100%" height="100%" viewBox="0 0 1017 250" version="1.1" xmlns="http://www.w3.org/2000/svg" xmlns:xlink="http://www.w3.org/1999/xlink" xml:space="preserve" xmlns:serif="http://www.serif.com/" style="fill-rule:evenodd;clip-rule:evenodd;stroke-linejoin:round;stroke-miterlimit:2;">
    <g transform="matrix(1,0,0,1,0,-350)">
        <g id="LekkeSlaap" transform="matrix(1.017,0,0,1.2,0,350)">
            <rect x="0" y="0" width="1000" height="250" style="fill:none;"/>
            <g transform="matrix(5.52136,0,0,4.67936,5.32957,7.2262)">
                <path d="M23.743,1.127L33.046,8.09L33.034,4.401L37.841,4.408L37.85,11.645L46.546,18.07L39.403,18.106L39.432,35.82L20.866,35.813C19.721,36.055 19.32,36.087 17.794,36.306C17.264,36.382 14.402,36.721 13.123,36.515C20.169,35.567 26.609,33.572 32.455,28.984C34.636,27.272 34.654,25.36 34.6,25.305C33.043,27.596 25.735,31.003 20.587,32.485C17.813,33.283 11.919,33.726 8.893,33.282C6.451,32.924 2.862,31.368 2.48,29.503C3.223,30.336 6.493,32.067 7.506,31.811L7.529,18.084L0.816,18.085L23.743,1.127Z" style="fill:rgb(236,119,45);fill-rule:nonzero;"/>
            </g>
            <g transform="matrix(0.983284,0,0,0.833333,10.536,11.9447)">
                <g transform="matrix(1.04399,0,0,1.04399,621.446,-321.411)">
                    <g transform="matrix(167.626,0,0,167.626,270.37,489.541)">
                        <path d="M0.168,0.141C0.168,0.185 0.146,0.207 0.102,0.207L0.035,0.207L0.035,-0.299C0.042,-0.457 0.124,-0.535 0.283,-0.535C0.447,-0.535 0.529,-0.446 0.529,-0.268C0.529,-0.088 0.459,0.005 0.318,0.01C0.252,0.01 0.202,-0.017 0.168,-0.072L0.168,0.141ZM0.281,-0.109C0.353,-0.109 0.39,-0.16 0.393,-0.262C0.393,-0.369 0.355,-0.422 0.279,-0.422C0.203,-0.422 0.167,-0.369 0.168,-0.262C0.172,-0.16 0.209,-0.109 0.281,-0.109Z" style="fill:rgb(236,119,45);fill-rule:nonzero;"/>
                    </g>
                </g>
                <g transform="matrix(1.04399,0,0,1.04399,542.324,-321.411)">
                    <g transform="matrix(167.626,0,0,167.626,270.37,489.541)">
                        <path d="M0.221,-0.098C0.179,-0.098 0.157,-0.118 0.154,-0.16C0.154,-0.199 0.181,-0.224 0.234,-0.234C0.273,-0.242 0.309,-0.253 0.34,-0.266L0.34,-0.217C0.34,-0.142 0.295,-0.098 0.221,-0.098ZM0.252,-0.428C0.307,-0.428 0.335,-0.413 0.338,-0.383C0.338,-0.354 0.309,-0.337 0.252,-0.33C0.118,-0.317 0.026,-0.283 0.023,-0.156C0.023,-0.039 0.111,0.02 0.238,0.01C0.381,0 0.469,-0.065 0.469,-0.211L0.469,-0.391C0.466,-0.489 0.392,-0.537 0.246,-0.537C0.124,-0.537 0.055,-0.489 0.039,-0.391L0.172,-0.391C0.179,-0.416 0.205,-0.428 0.252,-0.428Z" style="fill:rgb(236,119,45);fill-rule:nonzero;"/>
                    </g>
                </g>
                <g transform="matrix(1.04399,0,0,1.04399,463.397,-321.411)">
                    <g transform="matrix(167.626,0,0,167.626,270.37,489.541)">
                        <path d="M0.221,-0.098C0.179,-0.098 0.157,-0.118 0.154,-0.16C0.154,-0.199 0.181,-0.224 0.234,-0.234C0.273,-0.242 0.309,-0.253 0.34,-0.266L0.34,-0.217C0.34,-0.142 0.295,-0.098 0.221,-0.098ZM0.252,-0.428C0.307,-0.428 0.335,-0.413 0.338,-0.383C0.338,-0.354 0.309,-0.337 0.252,-0.33C0.118,-0.317 0.026,-0.283 0.023,-0.156C0.023,-0.039 0.111,0.02 0.238,0.01C0.381,0 0.469,-0.065 0.469,-0.211L0.469,-0.391C0.466,-0.489 0.392,-0.537 0.246,-0.537C0.124,-0.537 0.055,-0.489 0.039,-0.391L0.172,-0.391C0.179,-0.416 0.205,-0.428 0.252,-0.428Z" style="fill:rgb(236,119,45);fill-rule:nonzero;"/>
                    </g>
                </g>
                <g transform="matrix(1.04399,0,0,1.04399,435.43,-321.411)">
                    <g transform="matrix(167.626,0,0,167.626,270.37,489.541)">
                        <path d="M0.104,-0.68L0.035,-0.68L0.035,0L0.168,0L0.168,-0.615C0.168,-0.65 0.139,-0.68 0.104,-0.68Z" style="fill:rgb(236,119,45);fill-rule:nonzero;"/>
                    </g>
                </g>
                <g transform="matrix(1.04399,0,0,1.04399,351.047,-321.411)">
                    <g transform="matrix(167.626,0,0,167.626,270.37,489.541)">
                        <path d="M0.156,-0.174L0.02,-0.174C0.02,-0.113 0.04,-0.067 0.08,-0.037C0.116,-0.006 0.172,0.01 0.246,0.01C0.386,0.01 0.488,-0.038 0.488,-0.168C0.488,-0.204 0.476,-0.236 0.451,-0.262C0.422,-0.289 0.363,-0.312 0.273,-0.33C0.204,-0.343 0.17,-0.364 0.17,-0.391C0.17,-0.418 0.196,-0.432 0.248,-0.432C0.292,-0.432 0.319,-0.419 0.328,-0.396C0.336,-0.375 0.356,-0.364 0.387,-0.363L0.471,-0.363C0.468,-0.418 0.447,-0.461 0.408,-0.492C0.368,-0.522 0.314,-0.537 0.246,-0.537C0.125,-0.535 0.035,-0.481 0.035,-0.367C0.036,-0.284 0.096,-0.232 0.213,-0.211C0.304,-0.195 0.35,-0.173 0.35,-0.146C0.35,-0.112 0.322,-0.096 0.266,-0.096C0.201,-0.096 0.159,-0.116 0.156,-0.174Z" style="fill:rgb(236,119,45);fill-rule:nonzero;"/>
                    </g>
                </g>
                <g transform="matrix(1.04399,0,0,1.04399,263.071,-321.411)">
                    <g transform="matrix(167.626,0,0,167.626,270.37,489.541)">
                        <path d="M0.502,-0.162L0.404,-0.162C0.386,-0.162 0.371,-0.156 0.359,-0.143C0.333,-0.118 0.304,-0.105 0.273,-0.105C0.208,-0.105 0.173,-0.146 0.168,-0.227L0.51,-0.227C0.52,-0.434 0.441,-0.537 0.273,-0.537C0.112,-0.536 0.031,-0.446 0.031,-0.266C0.031,-0.086 0.111,0.007 0.271,0.012C0.401,0.012 0.473,-0.05 0.502,-0.162ZM0.271,-0.428C0.328,-0.428 0.361,-0.392 0.369,-0.322L0.17,-0.322C0.18,-0.392 0.214,-0.428 0.271,-0.428Z" style="fill:rgb(90,91,93);fill-rule:nonzero;"/>
                    </g>
                </g>
                <g transform="matrix(1.04399,0,0,1.04399,189.729,-321.411)">
                    <g transform="matrix(167.626,0,0,167.626,270.37,489.541)">
                        <path d="M0.104,-0.68L0.035,-0.68L0.035,0L0.168,0L0.168,-0.193C0.168,-0.207 0.175,-0.216 0.189,-0.219C0.206,-0.219 0.223,-0.204 0.24,-0.174L0.334,0L0.494,0L0.309,-0.314L0.492,-0.51L0.332,-0.51L0.168,-0.322L0.168,-0.615C0.168,-0.65 0.139,-0.68 0.104,-0.68Z" style="fill:rgb(90,91,93);fill-rule:nonzero;"/>
                    </g>
                </g>
                <g transform="matrix(1.04399,0,0,1.04399,102.299,-321.411)">
                    <g transform="matrix(167.626,0,0,167.626,270.37,489.541)">
                        <path d="M0.104,-0.68L0.035,-0.68L0.035,0L0.168,0L0.168,-0.193C0.168,-0.207 0.175,-0.216 0.189,-0.219C0.206,-0.219 0.223,-0.204 0.24,-0.174L0.334,0L0.494,0L0.309,-0.314L0.492,-0.51L0.332,-0.51L0.168,-0.322L0.168,-0.615C0.168,-0.65 0.139,-0.68 0.104,-0.68Z" style="fill:rgb(90,91,93);fill-rule:nonzero;"/>
                    </g>
                </g>
                <g transform="matrix(1.04399,0,0,1.04399,14.8773,-321.411)">
                    <g transform="matrix(167.626,0,0,167.626,270.37,489.541)">
                        <path d="M0.502,-0.162L0.404,-0.162C0.386,-0.162 0.371,-0.156 0.359,-0.143C0.333,-0.118 0.304,-0.105 0.273,-0.105C0.208,-0.105 0.173,-0.146 0.168,-0.227L0.51,-0.227C0.52,-0.434 0.441,-0.537 0.273,-0.537C0.112,-0.536 0.031,-0.446 0.031,-0.266C0.031,-0.086 0.111,0.007 0.271,0.012C0.401,0.012 0.473,-0.05 0.502,-0.162ZM0.271,-0.428C0.328,-0.428 0.361,-0.392 0.369,-0.322L0.17,-0.322C0.18,-0.392 0.214,-0.428 0.271,-0.428Z" style="fill:rgb(90,91,93);fill-rule:nonzero;"/>
                    </g>
                </g>
                <g transform="matrix(1.04399,0,0,1.04399,-14.9994,-321.411)">
                    <g transform="matrix(167.626,0,0,167.626,270.37,489.541)">
                        <path d="M0.104,-0.68L0.035,-0.68L0.035,0L0.168,0L0.168,-0.615C0.168,-0.65 0.139,-0.68 0.104,-0.68Z" style="fill:rgb(90,91,93);fill-rule:nonzero;"/>
                    </g>
                </g>
            </g>
        </g>
    </g>
</svg>
