<?xml version="1.0" encoding="UTF-8" standalone="no"?>
<!DOCTYPE svg PUBLIC "-//W3C//DTD SVG 1.1//EN" "http://www.w3.org/Graphics/SVG/1.1/DTD/svg11.dtd">
<svg width="100%" height="100%" viewBox="0 0 1122 300" version="1.1" xmlns="http://www.w3.org/2000/svg" xmlns:xlink="http://www.w3.org/1999/xlink" xml:space="preserve" xmlns:serif="http://www.serif.com/" style="fill-rule:evenodd;clip-rule:evenodd;stroke-linejoin:round;stroke-miterlimit:2;">
    <g id="TravelGround" transform="matrix(1.122,0,0,1.2,0,0)">
        <rect x="0" y="0" width="1000" height="250" style="fill:none;"/>
        <g transform="matrix(0.192685,0,0,0.18016,-27.2506,13.0465)">
            <path d="M499.468,46.272C704.63,9.975 900.664,147.072 936.961,352.234C960.135,476.565 937.309,634.367 889.578,786.529C827.03,985.928 725.922,1152.63 694.576,1158.13C663.231,1163.62 512.783,1040.37 385.449,872.463C262.519,710.367 208.359,577.976 193.506,483.765C157.209,278.603 294.306,82.569 499.468,46.272ZM565.233,124.327C727.316,124.327 858.906,255.917 858.906,417.999C858.906,580.082 727.316,711.672 565.233,711.672C403.151,711.672 271.561,580.082 271.561,417.999C271.561,255.917 403.151,124.327 565.233,124.327ZM604.013,607.315C487.905,633.212 399.426,570.919 384.29,554.344C355.091,522.371 388.241,486.58 422.669,507.682C450.459,525.693 495.025,563.745 584.521,548.222C688.101,526.602 722.88,445.932 722.19,448.42C722.227,448.347 742.05,416.516 767.524,430.532C792.865,444.476 776.52,477.505 776.52,477.505C764.514,501.223 708.794,583.944 604.013,607.315Z" style="fill:#fff;"/>
        </g>
        <g transform="matrix(1.06952,0,0,1,-10.1056,15.7019)">
            <g transform="matrix(0.869994,0,0,0.869994,-80.3855,-269.953)">
                <g transform="matrix(167.626,0,0,167.626,270.37,489.541)">
                    <path d="M0.035,-0.607L0.035,-0.559L0.236,-0.559L0.236,0L0.375,0L0.375,-0.559L0.576,-0.559L0.576,-0.68L0.105,-0.68C0.066,-0.68 0.035,-0.646 0.035,-0.607Z" style="fill:#fff;fill-rule:nonzero;"/>
                </g>
                <g transform="matrix(167.626,0,0,167.626,354.795,489.541)">
                    <path d="M0.035,0L0.17,0L0.17,-0.275C0.17,-0.352 0.207,-0.391 0.281,-0.391L0.326,-0.391L0.326,-0.529L0.307,-0.529C0.13,-0.529 0.039,-0.444 0.035,-0.273L0.035,0Z" style="fill:#fff;fill-rule:nonzero;"/>
                </g>
                <g transform="matrix(167.626,0,0,167.626,407.933,489.541)">
                    <path d="M0.221,-0.098C0.179,-0.098 0.157,-0.118 0.154,-0.16C0.154,-0.199 0.181,-0.224 0.234,-0.234C0.273,-0.242 0.309,-0.253 0.34,-0.266L0.34,-0.217C0.34,-0.142 0.295,-0.098 0.221,-0.098ZM0.252,-0.428C0.307,-0.428 0.335,-0.413 0.338,-0.383C0.338,-0.354 0.309,-0.337 0.252,-0.33C0.118,-0.317 0.026,-0.283 0.023,-0.156C0.023,-0.039 0.111,0.02 0.238,0.01C0.381,0 0.469,-0.065 0.469,-0.211L0.469,-0.391C0.466,-0.489 0.392,-0.537 0.246,-0.537C0.124,-0.537 0.055,-0.489 0.039,-0.391L0.172,-0.391C0.179,-0.416 0.205,-0.428 0.252,-0.428Z" style="fill:#fff;fill-rule:nonzero;"/>
                </g>
                <g transform="matrix(167.626,0,0,167.626,481.663,489.541)">
                    <path d="M0.436,-0.529C0.403,-0.529 0.381,-0.513 0.371,-0.482L0.279,-0.158L0.172,-0.529L0.025,-0.529L0.211,0L0.352,0L0.539,-0.529L0.436,-0.529Z" style="fill:#fff;fill-rule:nonzero;"/>
                </g>
                <g transform="matrix(167.626,0,0,167.626,564.78,489.541)">
                    <path d="M0.502,-0.162L0.404,-0.162C0.386,-0.162 0.371,-0.156 0.359,-0.143C0.333,-0.118 0.304,-0.105 0.273,-0.105C0.208,-0.105 0.173,-0.146 0.168,-0.227L0.51,-0.227C0.52,-0.434 0.441,-0.537 0.273,-0.537C0.112,-0.536 0.031,-0.446 0.031,-0.266C0.031,-0.086 0.111,0.007 0.271,0.012C0.401,0.012 0.473,-0.05 0.502,-0.162ZM0.271,-0.428C0.328,-0.428 0.361,-0.392 0.369,-0.322L0.17,-0.322C0.18,-0.392 0.214,-0.428 0.271,-0.428Z" style="fill:#fff;fill-rule:nonzero;"/>
                </g>
                <g transform="matrix(167.626,0,0,167.626,648.761,489.541)">
                    <path d="M0.104,-0.68L0.035,-0.68L0.035,0L0.168,0L0.168,-0.615C0.168,-0.65 0.139,-0.68 0.104,-0.68Z" style="fill:#fff;fill-rule:nonzero;"/>
                </g>
            </g>
            <g transform="matrix(0.869994,0,0,0.869994,273.895,-269.953)">
                <g transform="matrix(167.626,0,0,167.626,270.37,489.541)">
                    <path d="M0.029,-0.34C0.029,-0.141 0.147,0.01 0.342,0.01C0.44,0.01 0.489,-0.024 0.537,-0.086L0.543,-0.053C0.546,-0.022 0.578,0 0.611,0L0.646,0L0.646,-0.367L0.369,-0.367L0.369,-0.324C0.369,-0.285 0.4,-0.254 0.439,-0.254L0.521,-0.254C0.506,-0.172 0.451,-0.109 0.357,-0.109C0.232,-0.118 0.171,-0.198 0.172,-0.347C0.173,-0.496 0.233,-0.57 0.35,-0.57C0.416,-0.57 0.463,-0.543 0.49,-0.488C0.506,-0.465 0.526,-0.453 0.551,-0.453L0.637,-0.453C0.632,-0.53 0.603,-0.589 0.551,-0.631C0.494,-0.671 0.425,-0.691 0.346,-0.691C0.145,-0.699 0.026,-0.541 0.029,-0.34Z" style="fill:#fff;fill-rule:nonzero;"/>
                </g>
                <g transform="matrix(167.626,0,0,167.626,377.818,489.541)">
                    <path d="M0.035,0L0.17,0L0.17,-0.275C0.17,-0.352 0.207,-0.391 0.281,-0.391L0.326,-0.391L0.326,-0.529L0.307,-0.529C0.13,-0.529 0.039,-0.444 0.035,-0.273L0.035,0Z" style="fill:#fff;fill-rule:nonzero;"/>
                </g>
                <g transform="matrix(167.626,0,0,167.626,430.955,489.541)">
                    <path d="M0.271,-0.537C0.111,-0.537 0.031,-0.446 0.031,-0.262C0.031,-0.08 0.111,0.012 0.271,0.012C0.431,0.012 0.512,-0.08 0.512,-0.262C0.512,-0.446 0.431,-0.537 0.271,-0.537ZM0.271,-0.42C0.339,-0.42 0.373,-0.369 0.373,-0.266C0.372,-0.161 0.338,-0.107 0.27,-0.107C0.202,-0.107 0.167,-0.159 0.166,-0.262C0.166,-0.367 0.201,-0.42 0.271,-0.42Z" style="fill:#fff;fill-rule:nonzero;"/>
                </g>
                <g transform="matrix(167.626,0,0,167.626,515.606,489.541)">
                    <path d="M0.48,-0.529L0.412,-0.529C0.368,-0.529 0.347,-0.507 0.348,-0.463L0.348,-0.184C0.348,-0.125 0.318,-0.096 0.258,-0.096C0.198,-0.096 0.168,-0.125 0.168,-0.184L0.168,-0.529L0.035,-0.529L0.035,-0.211C0.035,-0.122 0.058,-0.064 0.104,-0.035C0.15,-0.005 0.199,0.01 0.254,0.01C0.311,0.01 0.363,-0.004 0.41,-0.031C0.457,-0.06 0.48,-0.12 0.48,-0.211L0.48,-0.529Z" style="fill:#fff;fill-rule:nonzero;"/>
                </g>
                <g transform="matrix(167.626,0,0,167.626,593.887,489.541)">
                    <path d="M0.486,0L0.486,-0.311C0.487,-0.462 0.413,-0.537 0.262,-0.537C0.111,-0.537 0.035,-0.462 0.035,-0.311L0.035,0L0.17,0L0.17,-0.338C0.171,-0.393 0.201,-0.42 0.26,-0.42C0.319,-0.42 0.349,-0.393 0.352,-0.338L0.352,-0.066C0.352,-0.024 0.374,-0.003 0.418,0L0.486,0Z" style="fill:#fff;fill-rule:nonzero;"/>
                </g>
                <g transform="matrix(167.626,0,0,167.626,673.51,489.541)">
                    <path d="M0.279,-0.418C0.351,-0.418 0.388,-0.368 0.391,-0.266C0.391,-0.159 0.353,-0.105 0.277,-0.105C0.201,-0.105 0.165,-0.159 0.166,-0.266C0.17,-0.368 0.207,-0.418 0.279,-0.418ZM0.457,-0.68L0.391,-0.68L0.391,-0.455C0.357,-0.51 0.306,-0.537 0.24,-0.537C0.099,-0.532 0.029,-0.44 0.029,-0.26C0.029,-0.084 0.111,0.005 0.275,0.008C0.44,0.009 0.523,-0.07 0.523,-0.229L0.523,-0.613C0.523,-0.649 0.493,-0.68 0.457,-0.68Z" style="fill:#fff;fill-rule:nonzero;"/>
                </g>
            </g>
        </g>
    </g>
</svg>
