<svg width="93" height="38" viewBox="0 0 93 38" fill="none" xmlns="http://www.w3.org/2000/svg">
<path d="M7.44785 10.6386L11.902 19.9963L16.4291 10.6386H23.8039L14.056 28.8914H9.63839L0 10.6386H7.44785Z" fill="#1B1B1B"/>
<path d="M32.6882 10.6386V28.8914H26.08V10.6386H32.6882ZM25.6419 3.62921C25.6419 3.13109 25.7393 2.66854 25.934 2.24157C26.1287 1.79089 26.3964 1.3995 26.7372 1.06741C27.0779 0.73533 27.4674 0.474407 27.9055 0.284645C28.3679 0.094882 28.8547 0 29.3658 0C29.877 0 30.3516 0.094882 30.7897 0.284645C31.2521 0.474407 31.6537 0.73533 31.9945 1.06741C32.3352 1.3995 32.603 1.79089 32.7977 2.24157C32.9924 2.66854 33.0898 3.13109 33.0898 3.62921C33.0898 4.12734 32.9924 4.60175 32.7977 5.05244C32.603 5.4794 32.3352 5.85893 31.9945 6.19101C31.6537 6.5231 31.2521 6.78402 30.7897 6.97378C30.3516 7.16355 29.877 7.25843 29.3658 7.25843C28.8547 7.25843 28.3679 7.16355 27.9055 6.97378C27.4674 6.78402 27.0779 6.5231 26.7372 6.19101C26.3964 5.85893 26.1287 5.4794 25.934 5.05244C25.7393 4.60175 25.6419 4.12734 25.6419 3.62921Z" fill="#1B1B1B"/>
<path d="M43.9946 26.4007L34.9403 10.6386H42.6072L47.609 19.9963L52.4647 10.6386H60.0586L45.0168 38H37.6055L43.9946 26.4007Z" fill="#1B1B1B"/>
<path d="M66.4151 19.7116C66.4151 20.3046 66.5247 20.862 66.7437 21.3839C66.9628 21.882 67.2548 22.3208 67.6199 22.7004C68.0094 23.0799 68.4596 23.3764 68.9708 23.5899C69.5062 23.8034 70.0782 23.9101 70.6867 23.9101C71.2708 23.9101 71.8185 23.8034 72.3296 23.5899C72.8651 23.3764 73.3153 23.0799 73.6804 22.7004C74.0699 22.3208 74.3741 21.882 74.5932 21.3839C74.8366 20.8858 74.9582 20.3521 74.9582 19.7828C74.9582 19.2135 74.8366 18.6798 74.5932 18.1816C74.3741 17.6598 74.0699 17.2091 73.6804 16.8296C73.3153 16.4501 72.8651 16.1536 72.3296 15.9401C71.8185 15.7266 71.2708 15.6198 70.6867 15.6198C70.0782 15.6198 69.5062 15.7266 68.9708 15.9401C68.4596 16.1536 68.0094 16.4501 67.6199 16.8296C67.2548 17.2091 66.9628 17.6479 66.7437 18.1461C66.5247 18.6205 66.4151 19.1423 66.4151 19.7116ZM74.7392 10.6386H81.3838V28.8914H74.7392V26.8633C73.3275 28.5949 71.4169 29.4607 69.0073 29.4607C67.6443 29.4607 66.3908 29.2235 65.2468 28.7491C64.1029 28.2509 63.105 27.563 62.2531 26.6854C61.4012 25.8077 60.7319 24.7759 60.2451 23.5899C59.7826 22.4039 59.5514 21.1111 59.5514 19.7116C59.5514 18.407 59.7826 17.1735 60.2451 16.0112C60.7075 14.8252 61.3525 13.7934 62.1801 12.9157C63.0076 12.0381 63.9934 11.3502 65.1373 10.8521C66.2813 10.3302 67.5469 10.0693 68.9343 10.0693C71.2708 10.0693 73.2058 10.8639 74.7392 12.4532V10.6386Z" fill="#1B1B1B"/>
<path d="M84.4569 25.4757C84.4569 24.9064 84.5664 24.3727 84.7855 23.8745C85.0045 23.3527 85.3088 22.902 85.6982 22.5225C86.0876 22.1429 86.5379 21.8464 87.049 21.633C87.5845 21.4195 88.1443 21.3127 88.7284 21.3127C89.3126 21.3127 89.8602 21.4195 90.3713 21.633C90.9068 21.8464 91.3693 22.1429 91.7587 22.5225C92.1481 22.902 92.4524 23.3527 92.6714 23.8745C92.8905 24.3727 93 24.9064 93 25.4757C93 26.0449 92.8905 26.5905 92.6714 27.1124C92.4524 27.6105 92.1481 28.0493 91.7587 28.4288C91.3693 28.8084 90.9068 29.1049 90.3713 29.3184C89.8602 29.5318 89.3126 29.6386 88.7284 29.6386C88.1443 29.6386 87.5845 29.5318 87.049 29.3184C86.5379 29.1049 86.0876 28.8084 85.6982 28.4288C85.3088 28.0493 85.0045 27.6105 84.7855 27.1124C84.5664 26.5905 84.4569 26.0449 84.4569 25.4757Z" fill="#38D39B"/>
</svg>
